<svg width="156" height="255" viewBox="0 0 156 255" fill="none" xmlns="http://www.w3.org/2000/svg">
<rect width="156" height="255" fill="#99CC44"/>
<path d="M66.4221 141.753L63.6381 144.537H55.7341L52.9821 141.753V125.209L55.7341 122.425H63.6381L66.4221 125.209V127.513L63.2541 130.713V125.209H56.1501V141.753H63.2541V139.417L66.4221 136.249V141.753ZM86.5393 144.505H80.4273L75.0513 125.241H72.3313L74.3153 127.129V144.505H71.1473V122.393H77.2913L82.6033 141.721H85.3553L83.3713 139.705V122.393H86.5393V144.505ZM105.922 141.753L103.138 144.537H95.2341L92.4821 141.753V125.209L95.2341 122.425H103.138L105.922 125.209V127.513L102.754 130.713V125.209H95.6501V141.753H102.754V139.417L105.922 136.249V141.753Z" fill="#0F0F0F"/>
</svg>
