<svg width="288" height="426" viewBox="0 0 288 426" fill="none" xmlns="http://www.w3.org/2000/svg">
<rect x="284.26" width="422.859" height="124.916" transform="rotate(89.5514 284.26 0)" fill="#F72585"/>
<path d="M222.616 175.628L219.388 172.593L219.36 169.065L210.16 175.725L210.126 171.297L212.776 169.513L210.091 166.87L210.039 160.21L213.146 157.089L219.158 157.042L222.495 160.22L222.515 162.74L227.344 158.742L231.772 158.708L234.928 161.779L234.963 166.243L231.855 169.363L229.227 169.384L225.635 165.848L231.827 165.799L231.799 162.235L228.739 162.259L222.547 166.772L222.616 175.628ZM213.241 169.185L219.329 165.033L219.294 160.605L213.174 160.653L213.241 169.185ZM210.43 205.519L210.402 201.956L229.877 201.803L232.09 204.018L232.068 201.102L222.778 196.386L222.758 193.795L231.974 189.114L231.951 186.234L229.773 188.483L210.297 188.636L210.269 185.072L235.109 184.878L235.159 191.249L227.016 195.021L227.019 195.453L235.221 199.169L235.269 205.325L210.43 205.519ZM210.544 224.694L210.467 214.938L213.575 211.818L225.995 211.72L229.151 214.792L229.203 221.451L226.095 224.572L219.867 224.621L216.747 221.549L216.702 215.789L219.823 218.933L219.84 221.093L226.068 221.044L226.022 215.284L213.603 215.381L213.676 224.669L210.544 224.694ZM229.338 238.706L226.182 235.599L226.164 233.367L213.744 233.464L213.779 237.892L210.647 237.916L210.609 233.056L213.717 229.9L226.136 229.803L226.101 225.375L229.258 228.482L229.268 229.778L231.896 229.758L235.488 233.294L229.296 233.342L229.338 238.706ZM210.769 253.509L210.741 249.945L213.405 249.924L210.721 247.281L210.693 243.717L213.8 240.597L219.992 240.548L223.148 243.62L223.194 249.488L220.075 246.56L220.056 244.076L213.828 244.125L213.873 249.921L226.293 249.823L226.216 240.032L229.369 242.671L229.428 250.267L226.321 253.387L210.769 253.509ZM215.878 271.47L210.871 266.505L210.848 263.589L215.777 258.582L230.357 258.468L226.82 262.024L216.381 262.105L213.596 265.043L216.426 267.901L226.866 267.82L230.458 271.355L215.878 271.47ZM211.05 289.344L210.973 279.588L214.081 276.468L226.501 276.371L229.657 279.442L229.709 286.102L226.601 289.222L220.374 289.271L217.253 286.199L217.208 280.44L220.329 283.583L220.346 285.743L226.574 285.694L226.529 279.935L214.109 280.032L214.182 289.319L211.05 289.344ZM223.642 306.717L220.05 303.181L226.71 303.129L226.669 297.837L211.117 297.959L211.089 294.395L229.773 294.249L229.801 297.812L227.101 297.834L229.821 300.404L229.846 303.572L226.738 306.693L223.642 306.717ZM226.854 321.484L226.784 312.593L223.688 312.617L223.727 317.513L220.619 320.669L214.428 320.718L211.271 317.61L211.205 309.15L214.337 309.126L214.4 317.154L220.591 317.105L220.553 312.209L223.661 309.053L226.756 309.029L229.913 312.136L229.961 318.292L226.854 321.484ZM211.428 337.647L211.352 327.892L214.459 324.771L226.879 324.674L230.035 327.745L230.087 334.405L226.98 337.525L220.752 337.574L217.632 334.503L217.586 328.743L220.707 331.886L220.724 334.046L226.952 333.998L226.907 328.238L214.487 328.335L214.56 337.623L211.428 337.647Z" fill="black"/>
<rect width="158.491" height="160.565" transform="matrix(0.999991 -0.00428556 0.0056844 0.999984 0.348022 2.67926)" fill="#F72585"/>
<path d="M75.2824 90.3364L70.6056 95.1245L67.5016 95.1378L63.8326 91.4415L60.2377 95.1689L57.1017 95.1824L52.3707 90.4346L52.2721 73.0909L55.44 73.0773L55.5335 89.5251L58.4304 92.4887L59.2944 92.485L62.2215 89.4964L62.128 73.0487L65.2959 73.0351L65.3894 89.4828L68.3503 92.4462L69.2463 92.4423L72.1099 89.55L72.0159 73.0063L75.1839 72.9927L75.2824 90.3364ZM91.8936 95.0333L80.8537 95.0806L80.7593 78.4729L83.5279 75.741L80.3599 75.7545L80.3441 72.9706L91.768 72.9216L91.7838 75.7056L83.9119 75.7393L83.9566 83.6112L86.2791 81.2332L91.8151 81.2095L91.8307 83.9615L83.9588 83.9952L84.0059 92.2831L91.8778 92.2493L91.8936 95.0333ZM110.443 92.1698L107.675 94.9656L96.6349 95.013L96.5404 78.4052L99.309 75.6733L96.141 75.6869L96.1252 72.903L105.181 72.8641L107.981 75.6362L108.003 79.5721L106.062 81.5324L108.014 81.5241L110.396 83.8819L110.443 92.1698ZM104.846 81.5377L104.813 75.6498L99.693 75.6717L99.7399 83.9276L102.062 81.5496L104.846 81.5377ZM107.275 92.1833L107.228 83.8955L99.7399 83.9276L99.787 92.2154L107.275 92.1833ZM130.97 92.0818L128.266 94.8774L122.442 94.9024L119.706 92.1301L119.691 89.3781L122.859 89.3645L122.874 92.1165L127.802 92.0954L127.755 83.8075L122.571 83.8297L122.558 81.5258L128.094 75.934L128.092 75.55L119.612 75.5863L119.596 72.8024L130.86 72.7541L130.881 76.306L126.139 81.0624L126.142 81.4464L128.126 81.4379L130.925 84.2099L130.97 92.0818Z" fill="black"/>
</svg>
