<svg width="355" height="381" viewBox="0 0 355 381" fill="none" xmlns="http://www.w3.org/2000/svg">
<rect x="0.000732422" y="222" width="355" height="159" fill="#D633F0"/>
<path d="M118.361 313.964H111.485L105.437 292.292H102.377L104.609 294.416V313.964H101.045V289.088H107.957L113.933 310.832H117.029L114.797 308.564V289.088H118.361V313.964ZM137.539 314H127.783L124.687 310.868V298.448L127.783 295.316H134.443L137.539 298.448V304.676L134.443 307.772H128.683L131.851 304.676H134.011V298.448H128.251V310.868H137.539V314ZM151.698 295.316L148.566 298.448H146.334V310.868H150.762V314H145.902L142.77 310.868V298.448H138.342L141.474 295.316H142.77V292.688L146.334 289.124V295.316H151.698ZM174.779 309.464L170.279 314H167.219L164.123 310.904L160.991 314H158.003L153.467 309.464V294.452L156.995 298.016V308.888L159.659 311.516L162.359 308.672V298.016L165.923 294.452V308.672L168.551 311.516L171.251 308.888V298.016L174.779 294.452V309.464ZM192.628 310.868L189.532 314H182.872L179.776 310.868V298.448L182.872 295.316H189.532L192.628 298.448V310.868ZM189.1 310.868V298.448H183.34V310.868H189.1ZM210.943 301.544L207.379 305.108V298.448H202.087V314H198.523V295.316H202.087V298.016L204.679 295.316H207.847L210.943 298.448V301.544ZM218.931 303.236L227.823 294.452V298.268L224.691 301.364L227.823 304.532V314H224.295V303.776H218.931V314H215.367V288.692L218.931 285.128V303.236ZM236.505 292.256H232.941V288.692H236.505V292.256ZM236.505 314H232.941V298.052L236.505 294.452V314ZM255.567 314H252.039V298.448H246.279V314H242.715V295.316H246.279V298.016L248.907 295.316H252.471L255.567 298.448V314ZM274.985 295.316L271.889 298.448H264.329V310.868H270.089V301.544H273.653V320.228L270.557 323.324H260.333L263.393 320.228H270.089V311.264L266.525 314H263.897L260.765 310.868V298.448L263.897 295.316H274.985Z" fill="#FAF1F1"/>
<rect x="0.000732422" width="114" height="222" fill="#D633F0"/>
</svg>
