<svg width="355" height="156" viewBox="0 0 355 156" fill="none" xmlns="http://www.w3.org/2000/svg">
<rect x="0.000732422" width="355" height="156" fill="#FFC914"/>
<path d="M57.5171 87.868L54.3851 91H41.9651V72.316L45.0971 69.256H41.5331V66.124H51.7211L54.8531 69.256V73.684L52.6571 75.88H54.8531L57.5171 78.544V87.868ZM51.2891 75.88V69.256H45.5291V78.544L48.1571 75.88H51.2891ZM53.9531 87.868V78.544H45.5291V87.868H53.9531ZM66.6479 69.256H63.0839V65.692H66.6479V69.256ZM66.6479 91H63.0839V75.052L66.6479 71.452V91ZM85.3493 87.868L82.2533 91H75.5933L72.4973 87.868V75.448L75.5933 72.316H82.2533L85.3493 75.448V87.868ZM81.8213 87.868V75.448H76.0613V87.868H81.8213ZM101.463 91H97.8987V66.124H101.463V91ZM121.006 91H117.478V75.448H111.718V91H108.154V72.316H111.718V75.016L114.346 72.316H117.91L121.006 75.448V91ZM138.337 66.124H130.777V74.548L133.009 72.316H136.933L133.837 75.448H130.777V91H127.213V66.124L130.345 62.992H135.169L138.337 66.124ZM151.092 87.868L147.996 91H141.336L138.24 87.868V75.448L141.336 72.316H147.996L151.092 75.448V87.868ZM147.564 87.868V75.448H141.804V87.868H147.564ZM169.406 78.544L165.842 82.108V75.448H160.55V91H156.986V72.316H160.55V75.016L163.142 72.316H166.31L169.406 75.448V78.544ZM194.962 91H191.398V75.448H186.07V91H182.506V75.448H177.214V91H173.65V72.316H177.214V75.016L179.842 72.316H183.406L185.602 74.584L187.834 72.316H191.83L194.962 75.448V91ZM212.955 91H209.391V88.336L206.727 91H203.163L200.067 87.868V81.676L203.163 78.544H209.031L206.079 81.64H203.595V87.868H209.391V75.448H199.599L202.263 72.316H209.859L212.955 75.448V91ZM228.075 72.316L224.943 75.448H222.711V87.868H227.139V91H222.279L219.147 87.868V75.448H214.719L217.851 72.316H219.147V69.688L222.711 66.124V72.316H228.075ZM234.308 69.256H230.744V65.692H234.308V69.256ZM234.308 91H230.744V75.052L234.308 71.452V91ZM252.145 75.448L248.581 79.048V75.448H243.721V87.868H251.713V91H243.253L240.157 87.868V75.448L243.253 72.316H249.013L252.145 75.448ZM266.183 75.448H257.291V78.544H262.187L265.319 81.676V87.868L262.187 91H253.727V87.868H261.755V81.676H256.859L253.727 78.544V75.448L256.859 72.316H263.015L266.183 75.448Z" fill="black"/>
</svg>
